<svg xmlns="http://www.w3.org/2000/svg" width="30" height="27"><path fill-rule="evenodd" opacity=".502" fill="#DF4E4E" d="M13.702 25.675C10.622 23.471.577 15.833.617 10.046.663 3.441 5.007-.015 9.273-.015c2.233 0 4.334.923 5.994 2.544C16.917.967 19.01.079 21.246.079c4.261 0 8.598 3.407 8.642 9.918.04 5.747-9.976 13.446-13.047 15.669L15.275 26.8l-1.573-1.125zm1.546-18.454C12.154.003 3.363 1.687 3.305 10.065c-.034 4.843 11.961 13.424 11.961 13.424s11.969-8.664 11.935-13.474c-.058-8.398-9.003-9.724-11.953-2.794z"/></svg>