<svg xmlns="http://www.w3.org/2000/svg" width="29" height="32"><path fill-rule="evenodd" fill="#188B5A" d="M26.318 14.528l-.002.002a12.74 12.74 0 00-3.278-4.264c2.015-1.861 4.258-2.63 5.233-1.714 1.074 1.009.2 3.685-1.953 5.976zm-7.566-9.45c-.026.905-.208 1.313-.512 2.559a12.727 12.727 0 00-3.408-.463c-1.18 0-2.323.162-3.407.463-.329-1.345-.517-.598-.517-1.672 0-.289.014-.574.041-.852a1.83 1.83 0 011.065-3.28C12.727.718 13.726.024 14.832.024c1.107 0 2.105.694 2.819 1.809a1.827 1.827 0 011.101 3.245zm-6.68-2.569a1.155 1.155 0 100 2.31 1.155 1.155 0 000-2.31zm6.667 2.581c-.008.007-.014.016-.023.023.009.098.017.056.023-.023zm-1.147-2.581a1.156 1.156 0 100 2.312 1.156 1.156 0 000-2.312zM3.349 14.53l-.002-.002C1.194 12.237.319 9.561 1.394 8.552c.974-.916 3.217-.147 5.233 1.714a12.74 12.74 0 00-3.278 4.264zm3.206 15.058c-1.997 1.813-4.198 2.555-5.161 1.65-1.068-1.004-.21-3.654 1.916-5.936a12.744 12.744 0 003.245 4.286zM4.89 26.28l4.754-2.745 4.804 2.774v5.423A11.772 11.772 0 014.89 26.28zm-.442-.754a11.729 11.729 0 01-1.397-5.569c0-1.964.482-3.817 1.332-5.446l4.768 2.753v5.547l-4.703 2.715zm10-17.343v5.423L9.644 16.38 4.89 13.635a11.772 11.772 0 019.558-5.452zm-4.42 9.081l4.804-2.774 4.804 2.774v5.547l-4.804 2.774-4.804-2.774v-5.547zm14.776 8.969a11.773 11.773 0 01-9.478 5.495v-5.419l4.804-2.774 4.674 2.698zm-9.478-12.627V8.187a11.774 11.774 0 019.478 5.494L20.13 16.38l-4.804-2.774zm11.288 6.351c0 2.015-.506 3.911-1.398 5.569l-4.702-2.715v-5.547l4.767-2.753a11.73 11.73 0 011.333 5.446zm-.259 5.345c2.125 2.282 2.984 4.932 1.916 5.936-.963.905-3.165.163-5.161-1.65a12.744 12.744 0 003.245-4.286z"/></svg>